<!-- Exported by Character Map UWP -->
<svg height="100%" viewBox="0 0 1024 922" width="100%" xmlns="http://www.w3.org/2000/svg" xmlns:xlink="http://www.w3.org/1999/xlink">
  <path d="M1024,461C1024,468 1022.67,474.583 1020,480.75C1017.33,486.917 1013.67,492.333 1009,497C1004.33,501.667 998.917,505.333 992.75,508C986.583,510.667 980,512 973,512L174.5,512L497,834C507,844 512,856 512,870C512,877 510.667,883.667 508,890C505.333,896.333 501.75,901.833 497.25,906.5C492.75,911.167 487.333,914.833 481,917.5C474.667,920.167 468,921.5 461,921.5C446.667,921.5 434.5,916.5 424.5,906.5L15,497L13.5,495.5L13.5,495C4.5,486 0,474.667 0,461C0,446.667 5,434.5 15,424.5L424.5,15C434.5,5 446.667,0 461,0C468,0 474.583,1.33337 480.75,4C486.917,6.66669 492.333,10.3334 497,15C501.667,19.6667 505.333,25.0834 508,31.25C510.667,37.4167 512,44 512,51C512,65.3334 507,77.5 497,87.5L175,409.5L973,409.5C980,409.5 986.583,410.833 992.75,413.5C998.917,416.167 1004.33,419.917 1009,424.75C1013.67,429.583 1017.33,435.083 1020,441.25C1022.67,447.417 1024,454 1024,461Z" fill="#FFFFFF" fill-opacity="1">
  </path>
</svg>