<!-- Exported by Character Map UWP -->
<svg height="100%" viewBox="128 64 768 896" width="100%" xmlns="http://www.w3.org/2000/svg" xmlns:xlink="http://www.w3.org/1999/xlink">
  <path d="M896,768L896,832L640,832C640,849.667 636.667,866.25 630,881.75C623.333,897.25 614.167,910.833 602.5,922.5C590.833,934.167 577.25,943.333 561.75,950C546.25,956.667 529.667,960 512,960C494.333,960 477.75,956.667 462.25,950C446.75,943.333 433.167,934.167 421.5,922.5C409.833,910.833 400.667,897.25 394,881.75C387.333,866.25 384,849.667 384,832L128,832L128,768L192,768L192,384C192,354.667 195.833,326.333 203.5,299C211.167,271.667 221.917,246.167 235.75,222.5C249.583,198.833 266.25,177.25 285.75,157.75C305.25,138.25 326.833,121.583 350.5,107.75C374.167,93.9167 399.667,83.1667 427,75.5C454.333,67.8334 482.667,64.0001 512,64C541.333,64.0001 569.667,67.8334 597,75.5C624.333,83.1667 649.833,93.9167 673.5,107.75C697.167,121.583 718.75,138.25 738.25,157.75C757.75,177.25 774.417,198.833 788.25,222.5C802.083,246.167 812.833,271.667 820.5,299C828.167,326.333 832,354.667 832,384L832,768ZM768,768L768,384C768,348.667 761.25,315.5 747.75,284.5C734.25,253.5 715.917,226.417 692.75,203.25C669.583,180.083 642.5,161.75 611.5,148.25C580.5,134.75 547.333,128 512,128C476.667,128 443.5,134.75 412.5,148.25C381.5,161.75 354.417,180.083 331.25,203.25C308.083,226.417 289.75,253.5 276.25,284.5C262.75,315.5 256,348.667 256,384L256,768ZM512,896C521,896 529.333,894.333 537,891C544.667,887.667 551.417,883.083 557.25,877.25C563.083,871.417 567.667,864.667 571,857C574.333,849.333 576,841 576,832L448,832C448,841 449.667,849.333 453,857C456.333,864.667 460.917,871.417 466.75,877.25C472.583,883.083 479.333,887.667 487,891C494.667,894.333 503,896 512,896Z" fill="#FFFFFF" fill-opacity="1">
  </path>
</svg>